# xmcd CD database file
#
# Track frame offsets:
#	150
#	15565
#	31165
#	44613
#	58460
#	71900
#	86558
#	102170
#	117128
#	132918
#	148955
#	163943
#	178983
#	185868
#	201308
#	216955
#	234290
#	249205
#
# Disc length: 3571 seconds
#
# Revision: 0
# Processed by: cddbd v1.5.1PL0 Copyright (c) Steve Scherf et al.
# Submitted via: CDex 1.51
#
DISCID=160df112
DTITLE=Billie Holiday - Greatest Hits〔MCA〕
DYEAR=1900
DGENRE=Jazz
TTITLE0=Easy Living
TTITLE1=What Is This Thing Called Love?
TTITLE2=Solitude
TTITLE3=You're My Thrill
TTITLE4=Them There Eyes
TTITLE5=No More
TTITLE6=God Bless the Child
TTITLE7=My Man
TTITLE8=Don't Explain
TTITLE9=There Is No Greater Love
TTITLE10='Tain't Nobody 's  Bizness If I Do
TTITLE11=You Better Go Now
TTITLE12=Big Stuff
TTITLE13=Good Morning Heartache
TTITLE14=I Love You, Porgy 〔From Porgy and Bess〕
TTITLE15=Guilty
TTITLE16=Lover Man
TTITLE17=They Can't Take That Away from Me
EXTD=
EXTT0=
EXTT1=
EXTT2=
EXTT3=
EXTT4=
EXTT5=
EXTT6=
EXTT7=
EXTT8=
EXTT9=
EXTT10=
EXTT11=
EXTT12=
EXTT13=
EXTT14=
EXTT15=
EXTT16=
EXTT17=
PLAYORDER=
